%TF.GenerationSoftware,KiCad,Pcbnew,(5.1.6)-1*%
%TF.CreationDate,2020-12-25T18:58:44-03:00*%
%TF.ProjectId,nRF24L01_Arduino,6e524632-344c-4303-915f-41726475696e,rev?*%
%TF.SameCoordinates,Original*%
%TF.FileFunction,Copper,L2,Bot*%
%TF.FilePolarity,Positive*%
%FSLAX46Y46*%
G04 Gerber Fmt 4.6, Leading zero omitted, Abs format (unit mm)*
G04 Created by KiCad (PCBNEW (5.1.6)-1) date 2020-12-25 18:58:44*
%MOMM*%
%LPD*%
G01*
G04 APERTURE LIST*
%TA.AperFunction,ComponentPad*%
%ADD10C,3.000000*%
%TD*%
%TA.AperFunction,ComponentPad*%
%ADD11R,1.700000X1.700000*%
%TD*%
%TA.AperFunction,ComponentPad*%
%ADD12O,1.700000X1.700000*%
%TD*%
%TA.AperFunction,ComponentPad*%
%ADD13C,1.524000*%
%TD*%
%TA.AperFunction,ComponentPad*%
%ADD14R,1.600000X1.600000*%
%TD*%
%TA.AperFunction,ComponentPad*%
%ADD15C,1.600000*%
%TD*%
%TA.AperFunction,ViaPad*%
%ADD16C,1.016000*%
%TD*%
%TA.AperFunction,Conductor*%
%ADD17C,0.609600*%
%TD*%
%TA.AperFunction,Conductor*%
%ADD18C,0.406400*%
%TD*%
%TA.AperFunction,Conductor*%
%ADD19C,0.812800*%
%TD*%
%TA.AperFunction,Conductor*%
%ADD20C,1.016000*%
%TD*%
G04 APERTURE END LIST*
D10*
%TO.P,J12,1*%
%TO.N,Net-(J12-Pad1)*%
X94615000Y-99060000D03*
%TD*%
%TO.P,J13,1*%
%TO.N,Net-(J13-Pad1)*%
X64770000Y-54610000D03*
%TD*%
%TO.P,J14,1*%
%TO.N,Net-(J14-Pad1)*%
X94615000Y-54610000D03*
%TD*%
%TO.P,J11,1*%
%TO.N,Net-(J11-Pad1)*%
X64770000Y-99060000D03*
%TD*%
D11*
%TO.P,J4,1*%
%TO.N,Earth*%
X73660000Y-99060000D03*
D12*
%TO.P,J4,2*%
X76200000Y-99060000D03*
%TO.P,J4,3*%
%TO.N,Net-(J1-Pad4)*%
X78740000Y-99060000D03*
%TO.P,J4,4*%
%TO.N,Net-(J4-Pad4)*%
X81280000Y-99060000D03*
%TO.P,J4,5*%
%TO.N,Net-(J4-Pad5)*%
X83820000Y-99060000D03*
%TO.P,J4,6*%
%TO.N,Net-(J4-Pad6)*%
X86360000Y-99060000D03*
%TD*%
D13*
%TO.P,Mod1,1*%
%TO.N,Earth*%
X65405000Y-95250000D03*
%TO.P,Mod1,2*%
X67945000Y-95250000D03*
%TO.P,Mod1,3*%
%TO.N,Net-(J1-Pad4)*%
X70485000Y-95250000D03*
%TO.P,Mod1,4*%
%TO.N,Net-(J4-Pad4)*%
X73025000Y-95250000D03*
%TO.P,Mod1,5*%
%TO.N,Net-(J4-Pad5)*%
X75565000Y-95250000D03*
%TO.P,Mod1,6*%
%TO.N,Net-(J4-Pad6)*%
X78105000Y-95250000D03*
%TO.P,Mod1,7*%
%TO.N,Net-(Mod1-Pad7)*%
X79375000Y-92710000D03*
%TO.P,Mod1,8*%
%TO.N,Net-(Mod1-Pad8)*%
X79375000Y-90170000D03*
%TO.P,Mod1,9*%
%TO.N,Net-(Mod1-Pad9)*%
X79375000Y-87630000D03*
%TO.P,Mod1,10*%
%TO.N,Earth*%
X79375000Y-85090000D03*
%TO.P,Mod1,11*%
%TO.N,/~IRQ*%
X79375000Y-82550000D03*
%TO.P,Mod1,12*%
%TO.N,Net-(J1-Pad1)*%
X79375000Y-80010000D03*
%TO.P,Mod1,13*%
%TO.N,Net-(J1-Pad2)*%
X79375000Y-77470000D03*
%TO.P,Mod1,14*%
%TO.N,Net-(J1-Pad3)*%
X79375000Y-74930000D03*
%TO.P,Mod1,15*%
%TO.N,Net-(Mod1-Pad15)*%
X79375000Y-72390000D03*
%TO.P,Mod1,16*%
%TO.N,Net-(Mod1-Pad16)*%
X79375000Y-69850000D03*
%TO.P,Mod1,17*%
%TO.N,Net-(Mod1-Pad17)*%
X79375000Y-67310000D03*
%TO.P,Mod1,18*%
%TO.N,/CE*%
X79375000Y-64770000D03*
%TO.P,Mod1,19*%
%TO.N,Net-(J3-Pad3)*%
X64135000Y-92710000D03*
%TO.P,Mod1,20*%
%TO.N,Earth*%
X64135000Y-90170000D03*
%TO.P,Mod1,21*%
%TO.N,Net-(Mod1-Pad21)*%
X64135000Y-87630000D03*
%TO.P,Mod1,22*%
%TO.N,Net-(J1-Pad4)*%
X64135000Y-85090000D03*
%TO.P,Mod1,23*%
%TO.N,Net-(Mod1-Pad23)*%
X64135000Y-82550000D03*
%TO.P,Mod1,24*%
%TO.N,Net-(J2-Pad3)*%
X64135000Y-80010000D03*
%TO.P,Mod1,25*%
%TO.N,Net-(J2-Pad2)*%
X64135000Y-77470000D03*
%TO.P,Mod1,26*%
%TO.N,Net-(J2-Pad1)*%
X64135000Y-74930000D03*
%TO.P,Mod1,27*%
%TO.N,/SCK*%
X64135000Y-72390000D03*
%TO.P,Mod1,28*%
%TO.N,/MISO*%
X64135000Y-69850000D03*
%TO.P,Mod1,29*%
%TO.N,/MOSI*%
X64135000Y-67310000D03*
%TO.P,Mod1,30*%
%TO.N,/CSN-CS*%
X64135000Y-64770000D03*
%TO.P,Mod1,31*%
%TO.N,N/C*%
X66675000Y-83820000D03*
%TO.P,Mod1,32*%
X66675000Y-81280000D03*
%TO.P,Mod1,34*%
X66675000Y-73406000D03*
%TO.P,Mod1,35*%
X66675000Y-70866000D03*
%TD*%
D11*
%TO.P,J1,1*%
%TO.N,Net-(J1-Pad1)*%
X64135000Y-60960000D03*
D12*
%TO.P,J1,2*%
%TO.N,Net-(J1-Pad2)*%
X66675000Y-60960000D03*
%TO.P,J1,3*%
%TO.N,Net-(J1-Pad3)*%
X69215000Y-60960000D03*
%TO.P,J1,4*%
%TO.N,Net-(J1-Pad4)*%
X71755000Y-60960000D03*
%TO.P,J1,5*%
%TO.N,Earth*%
X74295000Y-60960000D03*
%TD*%
%TO.P,J2,5*%
%TO.N,Earth*%
X74295000Y-58420000D03*
%TO.P,J2,4*%
%TO.N,Net-(J1-Pad4)*%
X71755000Y-58420000D03*
%TO.P,J2,3*%
%TO.N,Net-(J2-Pad3)*%
X69215000Y-58420000D03*
%TO.P,J2,2*%
%TO.N,Net-(J2-Pad2)*%
X66675000Y-58420000D03*
D11*
%TO.P,J2,1*%
%TO.N,Net-(J2-Pad1)*%
X64135000Y-58420000D03*
%TD*%
%TO.P,JP1,1*%
%TO.N,Net-(J3-Pad3)*%
X90805000Y-68580000D03*
%TO.P,JP1,2*%
%TO.N,Net-(CI1-Pad3)*%
X88265000Y-68580000D03*
%TO.P,JP1,3*%
%TO.N,Net-(J1-Pad4)*%
X85725000Y-68580000D03*
%TD*%
%TO.P,Mod2,1*%
%TO.N,Earth*%
X84455000Y-95250000D03*
D12*
%TO.P,Mod2,2*%
%TO.N,Net-(C1-Pad1)*%
X84455000Y-92710000D03*
%TO.P,Mod2,3*%
%TO.N,/CE*%
X86995000Y-95250000D03*
%TO.P,Mod2,4*%
%TO.N,/CSN-CS*%
X86995000Y-92710000D03*
%TO.P,Mod2,5*%
%TO.N,/SCK*%
X89535000Y-95250000D03*
%TO.P,Mod2,6*%
%TO.N,/MOSI*%
X89535000Y-92710000D03*
%TO.P,Mod2,7*%
%TO.N,/MISO*%
X92075000Y-95250000D03*
%TO.P,Mod2,8*%
%TO.N,/~IRQ*%
X92075000Y-92710000D03*
%TD*%
D14*
%TO.P,C1,1*%
%TO.N,Net-(C1-Pad1)*%
X78105000Y-60960000D03*
D15*
%TO.P,C1,2*%
%TO.N,Earth*%
X78105000Y-58460000D03*
%TD*%
D11*
%TO.P,J3,1*%
%TO.N,Net-(J1-Pad4)*%
X86995000Y-58420000D03*
D12*
%TO.P,J3,2*%
%TO.N,Earth*%
X89535000Y-58420000D03*
%TO.P,J3,3*%
%TO.N,Net-(J3-Pad3)*%
X92075000Y-58420000D03*
%TD*%
D16*
%TO.N,Net-(C1-Pad1)*%
X83185000Y-61595000D03*
X83820000Y-75565000D03*
X88265000Y-73660000D03*
X88265000Y-83820000D03*
%TO.N,Net-(CI1-Pad3)*%
X90805000Y-83820000D03*
%TO.N,Earth*%
X74295000Y-85090000D03*
X74295000Y-90805000D03*
%TO.N,Net-(J1-Pad1)*%
X75565000Y-66040000D03*
%TO.N,Net-(J1-Pad2)*%
X76200000Y-64770000D03*
%TO.N,Net-(J1-Pad3)*%
X76200000Y-62865000D03*
%TO.N,Net-(J1-Pad4)*%
X70485000Y-85090000D03*
X84455000Y-83185000D03*
%TO.N,/~IRQ*%
X76835000Y-86360000D03*
X90805000Y-85725000D03*
%TO.N,/CE*%
X95885000Y-95885000D03*
X95885000Y-64135000D03*
%TO.N,/SCK*%
X92710000Y-73660000D03*
%TO.N,/MISO*%
X93345000Y-71120000D03*
%TO.N,/MOSI*%
X88265000Y-70485000D03*
%TO.N,/CSN-CS*%
X86995000Y-66675000D03*
%TO.N,Net-(J3-Pad3)*%
X95250000Y-88900000D03*
%TD*%
D17*
%TO.N,Net-(C1-Pad1)*%
X83185000Y-61595000D02*
X83185000Y-74930000D01*
X83185000Y-74930000D02*
X83820000Y-75565000D01*
X83820000Y-75565000D02*
X83820000Y-75565000D01*
D18*
X85708201Y-93963201D02*
X87646799Y-93963201D01*
X84455000Y-92710000D02*
X85708201Y-93963201D01*
X87646799Y-93963201D02*
X88265000Y-93345000D01*
X88265000Y-93345000D02*
X88265000Y-92125262D01*
X88265000Y-92125262D02*
X88265000Y-91440000D01*
D19*
X88265000Y-91440000D02*
X88265000Y-83820000D01*
D17*
X88265000Y-81915000D02*
X88265000Y-73660000D01*
X88265000Y-73660000D02*
X88265000Y-73660000D01*
D19*
X88265000Y-83820000D02*
X88265000Y-81915000D01*
D18*
%TO.N,Net-(CI1-Pad3)*%
X90805000Y-83820000D02*
X90805000Y-83820000D01*
X88265000Y-68580000D02*
X90805000Y-71120000D01*
D17*
X90805000Y-83820000D02*
X90805000Y-71120000D01*
%TO.N,Earth*%
X74295000Y-58420000D02*
X74295000Y-83820000D01*
X74295000Y-83820000D02*
X74295000Y-85090000D01*
X74295000Y-85090000D02*
X74295000Y-85090000D01*
X83185000Y-95250000D02*
X84455000Y-95250000D01*
X81280000Y-93345000D02*
X83185000Y-95250000D01*
X79375000Y-85090000D02*
X81280000Y-86995000D01*
X81280000Y-86995000D02*
X81280000Y-93345000D01*
X74295000Y-90805000D02*
X74295000Y-85090000D01*
D18*
%TO.N,Net-(J1-Pad1)*%
X78297370Y-80010000D02*
X75565000Y-77277630D01*
X79375000Y-80010000D02*
X78297370Y-80010000D01*
X75565000Y-77277630D02*
X75565000Y-75565000D01*
X75565000Y-75565000D02*
X75565000Y-66040000D01*
X75565000Y-66040000D02*
X75565000Y-66040000D01*
%TO.N,Net-(J1-Pad2)*%
X79375000Y-77470000D02*
X77470000Y-77470000D01*
X77470000Y-77470000D02*
X76835000Y-76835000D01*
X76835000Y-76835000D02*
X76835000Y-66040000D01*
X76835000Y-66040000D02*
X76835000Y-65405000D01*
X76835000Y-65405000D02*
X76200000Y-64770000D01*
X76200000Y-64770000D02*
X76200000Y-64770000D01*
%TO.N,Net-(J1-Pad3)*%
X79375000Y-74930000D02*
X78105000Y-74930000D01*
X78105000Y-74930000D02*
X77470000Y-74295000D01*
X77470000Y-74295000D02*
X77470000Y-64135000D01*
X77470000Y-64135000D02*
X76200000Y-62865000D01*
X76200000Y-62865000D02*
X76200000Y-62865000D01*
D17*
%TO.N,Net-(J1-Pad4)*%
X85725000Y-67310000D02*
X85725000Y-68580000D01*
X86995000Y-58420000D02*
X85725000Y-59690000D01*
X85725000Y-59690000D02*
X85725000Y-67310000D01*
X70485000Y-95250000D02*
X70485000Y-85090000D01*
X70485000Y-85090000D02*
X70485000Y-85090000D01*
X85725000Y-68580000D02*
X85725000Y-81915000D01*
X85725000Y-81915000D02*
X84455000Y-83185000D01*
X84455000Y-83185000D02*
X84455000Y-83185000D01*
X71755000Y-60960000D02*
X71755000Y-58420000D01*
D18*
%TO.N,Net-(J2-Pad3)*%
X64770000Y-79375000D02*
X64135000Y-80010000D01*
X69850000Y-79375000D02*
X64770000Y-79375000D01*
X70485000Y-78740000D02*
X69850000Y-79375000D01*
X69215000Y-58420000D02*
X70485000Y-59690000D01*
X70485000Y-59690000D02*
X70485000Y-78740000D01*
%TO.N,Net-(J2-Pad2)*%
X68580000Y-77470000D02*
X64135000Y-77470000D01*
X67945000Y-59690000D02*
X67945000Y-63500000D01*
X66675000Y-58420000D02*
X67945000Y-59690000D01*
X67945000Y-63500000D02*
X69215000Y-64770000D01*
X69215000Y-64770000D02*
X69215000Y-76835000D01*
X69215000Y-76835000D02*
X68580000Y-77470000D01*
%TO.N,Net-(J2-Pad1)*%
X67310000Y-74930000D02*
X64135000Y-74930000D01*
X65388201Y-59673201D02*
X65388201Y-63483201D01*
X65388201Y-63483201D02*
X67945000Y-66040000D01*
X64135000Y-58420000D02*
X65388201Y-59673201D01*
X67945000Y-74295000D02*
X67310000Y-74930000D01*
X67945000Y-66040000D02*
X67945000Y-74295000D01*
%TO.N,/~IRQ*%
X79375000Y-82550000D02*
X77470000Y-82550000D01*
X77470000Y-82550000D02*
X76835000Y-83185000D01*
X76835000Y-83185000D02*
X76835000Y-85090000D01*
X76835000Y-85090000D02*
X76835000Y-86360000D01*
X76835000Y-86360000D02*
X76835000Y-86360000D01*
X92075000Y-91440000D02*
X92075000Y-92710000D01*
X90805000Y-85725000D02*
X90805000Y-90170000D01*
X90805000Y-90170000D02*
X92075000Y-91440000D01*
%TO.N,/CE*%
X95885000Y-95885000D02*
X95885000Y-90805000D01*
X95885000Y-90805000D02*
X96520000Y-90170000D01*
X96520000Y-90170000D02*
X96520000Y-86995000D01*
X96520000Y-86995000D02*
X96520000Y-71120000D01*
X96520000Y-71120000D02*
X96520000Y-64770000D01*
X96520000Y-64770000D02*
X95885000Y-64135000D01*
X95885000Y-64135000D02*
X95885000Y-64135000D01*
%TO.N,/SCK*%
X89535000Y-95250000D02*
X90805000Y-93980000D01*
X90805000Y-93980000D02*
X92710000Y-93980000D01*
X92710000Y-93980000D02*
X93345000Y-93345000D01*
X93345000Y-93345000D02*
X93345000Y-90805000D01*
X93345000Y-90805000D02*
X92710000Y-90170000D01*
X92710000Y-90170000D02*
X92710000Y-86360000D01*
X92710000Y-86360000D02*
X92710000Y-73660000D01*
%TO.N,/MISO*%
X92075000Y-95250000D02*
X93980000Y-95250000D01*
X93980000Y-95250000D02*
X94615000Y-94615000D01*
X94615000Y-94615000D02*
X94615000Y-90170000D01*
X94615000Y-90170000D02*
X93980000Y-89535000D01*
X93980000Y-89535000D02*
X93980000Y-88265000D01*
X93980000Y-88265000D02*
X93980000Y-71755000D01*
X93980000Y-71755000D02*
X93345000Y-71120000D01*
X93345000Y-71120000D02*
X93345000Y-71120000D01*
%TO.N,/MOSI*%
X88265000Y-70485000D02*
X89535000Y-71755000D01*
X89535000Y-71755000D02*
X89535000Y-72390000D01*
X89535000Y-72390000D02*
X89535000Y-92710000D01*
%TO.N,/CSN-CS*%
X86995000Y-66675000D02*
X86995000Y-92710000D01*
D20*
%TO.N,Net-(J3-Pad3)*%
X92075000Y-58420000D02*
X90805000Y-59690000D01*
X90805000Y-65405000D02*
X91440000Y-66040000D01*
X90805000Y-65405000D02*
X90805000Y-68580000D01*
X90805000Y-59690000D02*
X90805000Y-65405000D01*
X91440000Y-66040000D02*
X94615000Y-66040000D01*
X94615000Y-66040000D02*
X95250000Y-66675000D01*
X95250000Y-66675000D02*
X95250000Y-88900000D01*
D17*
X95250000Y-88900000D02*
X95250000Y-88900000D01*
%TO.N,Net-(J4-Pad5)*%
X75565000Y-96520000D02*
X75565000Y-95250000D01*
X76200000Y-97155000D02*
X75565000Y-96520000D01*
X83820000Y-99060000D02*
X81915000Y-97155000D01*
X81915000Y-97155000D02*
X76200000Y-97155000D01*
%TD*%
M02*
