M48
; DRILL file {KiCad (5.1.6)-1} date 12/25/20 18:58:51
; FORMAT={-:-/ absolute / inch / decimal}
; #@! TF.CreationDate,2020-12-25T18:58:51-03:00
; #@! TF.GenerationSoftware,Kicad,Pcbnew,(5.1.6)-1
; #@! TF.FileFunction,Plated,1,2,PTH
FMAT,2
INCH
T1C0.0240
T2C0.0315
T3C0.0394
T4C0.0866
%
G90
G05
T1
X2.775Y-3.35
X2.925Y-3.35
X2.925Y-3.575
X2.975Y-2.6
X3.0Y-2.475
X3.0Y-2.55
X3.025Y-3.4
X3.275Y-2.425
X3.3Y-2.975
X3.325Y-3.275
X3.425Y-2.625
X3.475Y-2.775
X3.475Y-2.9
X3.475Y-3.3
X3.575Y-3.3
X3.575Y-3.375
X3.65Y-2.9
X3.675Y-2.8
X3.75Y-3.5
X3.775Y-2.525
X3.775Y-3.775
X3.375Y-2.7
X3.475Y-2.7
X3.575Y-2.7
T2
X3.075Y-2.3016
X3.075Y-2.4
T3
X3.425Y-2.3
X3.525Y-2.3
X3.625Y-2.3
X3.325Y-3.65
X3.325Y-3.75
X3.425Y-3.65
X3.425Y-3.75
X3.525Y-3.65
X3.525Y-3.75
X3.625Y-3.65
X3.625Y-3.75
X2.525Y-2.3
X2.625Y-2.3
X2.725Y-2.3
X2.825Y-2.3
X2.925Y-2.3
X2.525Y-2.4
X2.625Y-2.4
X2.725Y-2.4
X2.825Y-2.4
X2.925Y-2.4
X2.525Y-2.55
X2.525Y-2.65
X2.525Y-2.75
X2.525Y-2.85
X2.525Y-2.95
X2.525Y-3.05
X2.525Y-3.15
X2.525Y-3.25
X2.525Y-3.35
X2.525Y-3.45
X2.525Y-3.55
X2.525Y-3.65
X2.575Y-3.75
X2.625Y-2.79
X2.625Y-2.89
X2.625Y-3.2
X2.625Y-3.3
X2.675Y-3.75
X2.775Y-3.75
X2.875Y-3.75
X2.975Y-3.75
X3.075Y-3.75
X3.125Y-2.55
X3.125Y-2.65
X3.125Y-2.75
X3.125Y-2.85
X3.125Y-2.95
X3.125Y-3.05
X3.125Y-3.15
X3.125Y-3.25
X3.125Y-3.35
X3.125Y-3.45
X3.125Y-3.55
X3.125Y-3.65
X2.9Y-3.9
X3.0Y-3.9
X3.1Y-3.9
X3.2Y-3.9
X3.3Y-3.9
X3.4Y-3.9
T4
X2.55Y-3.9
X3.725Y-2.15
X2.55Y-2.15
X3.725Y-3.9
T0
M30
